<?xml version="1.0" encoding="UTF-8"?>
<svg width="4px" height="104px" viewBox="0 0 4 104" version="1.1" xmlns="http://www.w3.org/2000/svg" xmlns:xlink="http://www.w3.org/1999/xlink">
    <!-- Generator: Sketch 46.1 (44463) - http://www.bohemiancoding.com/sketch -->
    <title>Combined Shape Copy</title>
    <desc>Created with Sketch.</desc>
    <defs>
        <linearGradient x1="50%" y1="0%" x2="50%" y2="100%" id="linearGradient-1">
            <stop stop-color="#FFFFFF" stop-opacity="0" offset="0%"></stop>
            <stop stop-color="#3EAAE0" offset="100%"></stop>
        </linearGradient>
    </defs>
    <g id="Page-1" stroke="none" stroke-width="1" fill="#000" fill-rule="evenodd">
        <g id="Desktop-HD" transform="translate(-718.000000, -1314.000000)" fill="url(#linearGradient-1)">
            <g id="//-How-it-works-//" transform="translate(0.000000, 720.000000)">
                <path d="M720,598 C718.895431,598 718,597.104569 718,596 C718,594.895431 718.895431,594 720,594 C721.104569,594 722,594.895431 722,596 C722,597.104569 721.104569,598 720,598 Z M720,608 C718.895431,608 718,607.104569 718,606 C718,604.895431 718.895431,604 720,604 C721.104569,604 722,604.895431 722,606 C722,607.104569 721.104569,608 720,608 Z M720,618 C718.895431,618 718,617.104569 718,616 C718,614.895431 718.895431,614 720,614 C721.104569,614 722,614.895431 722,616 C722,617.104569 721.104569,618 720,618 Z M720,628 C718.895431,628 718,627.104569 718,626 C718,624.895431 718.895431,624 720,624 C721.104569,624 722,624.895431 722,626 C722,627.104569 721.104569,628 720,628 Z M720,638 C718.895431,638 718,637.104569 718,636 C718,634.895431 718.895431,634 720,634 C721.104569,634 722,634.895431 722,636 C722,637.104569 721.104569,638 720,638 Z M720,648 C718.895431,648 718,647.104569 718,646 C718,644.895431 718.895431,644 720,644 C721.104569,644 722,644.895431 722,646 C722,647.104569 721.104569,648 720,648 Z M720,658 C718.895431,658 718,657.104569 718,656 C718,654.895431 718.895431,654 720,654 C721.104569,654 722,654.895431 722,656 C722,657.104569 721.104569,658 720,658 Z M720,668 C718.895431,668 718,667.104569 718,666 C718,664.895431 718.895431,664 720,664 C721.104569,664 722,664.895431 722,666 C722,667.104569 721.104569,668 720,668 Z M720,678 C718.895431,678 718,677.104569 718,676 C718,674.895431 718.895431,674 720,674 C721.104569,674 722,674.895431 722,676 C722,677.104569 721.104569,678 720,678 Z M720,688 C718.895431,688 718,687.104569 718,686 C718,684.895431 718.895431,684 720,684 C721.104569,684 722,684.895431 722,686 C722,687.104569 721.104569,688 720,688 Z M720,698 C718.895431,698 718,697.104569 718,696 C718,694.895431 718.895431,694 720,694 C721.104569,694 722,694.895431 722,696 C722,697.104569 721.104569,698 720,698 Z" id="Combined-Shape-Copy"></path>
            </g>
        </g>
    </g>
</svg>